<svg fill="none" height="268" width="459" xmlns="http://www.w3.org/2000/svg"><g fill="#74c0fc"><path d="M92.1 105.475l2-1.953c.3-.293.3-.781 0-1.074s-.8-.293-1.1 0l-2 1.953-3.8-3.711c-.4-.391-.9-.586-1.4-.586s-1 .195-1.4.586l-2.1 2.051a19.9 19.9 0 0 0-6.8-1.172c-10.8 0-19.5 8.497-19.5 19.044 0 10.548 8.7 19.044 19.5 19.044S95 131.161 95 120.613c0-2.344-.4-4.492-1.2-6.543l2.1-2.051c.8-.782.8-2.051 0-2.832zm2.7 5.469l-2.1 2.051c-.4.391-.5.977-.3 1.563 1.2 3.614 1.1 5.371 1.1 6.055 0 10.938-10.3 19.533-21.9 17.189-6.8-1.368-12.3-6.739-13.7-13.38-2.4-11.329 6.4-21.388 17.6-21.388.7 0 2.5-.098 6.2 1.074.5.195 1.2.098 1.6-.293l2.1-2.051c.2-.195.6-.195.7 0l8.7 8.497c.2.195.3.488 0 .683zm-19.3-4.297c-7.9 0-14.2 6.251-14.2 13.868 0 .391.3.782.8.782s.8-.293.8-.782c0-6.836 5.7-12.5 12.8-12.5.4 0 .8-.293.8-.782 0-.488-.6-.586-1-.586zm27.7-8.79h-4.5v-4.296c0-.489-.3-.782-.7-.782s-.8.293-.8.782v4.394h-4.5c-.4-.097-.7.293-.7.684 0 .39.3.781.8.781h4.5v4.395c0 .391.3.781.8.781s.8-.293.8-.781V99.42h4.5c.3 0 .6-.39.6-.781a.78.78 0 0 0-.8-.781zM382.1 139.657l2-1.953c.3-.293.3-.781 0-1.074s-.8-.293-1.1 0l-2 1.953-3.8-3.711c-.4-.391-.9-.586-1.4-.586s-1 .195-1.4.586l-2.1 2.051c-2.2-.782-4.4-1.172-6.8-1.172-10.8 0-19.5 8.496-19.5 19.044 0 10.547 8.7 19.044 19.5 19.044s19.5-8.497 19.5-19.044c0-2.344-.4-4.493-1.2-6.543l2.1-2.051c.8-.782.8-2.051 0-2.833zm2.7 5.469l-2.1 2.051c-.4.391-.5.977-.3 1.563 1.2 3.613 1.1 5.371 1.1 6.055 0 10.938-10.3 19.532-21.9 17.189-6.8-1.368-12.3-6.739-13.7-13.38-2.4-11.329 6.4-21.388 17.6-21.388.7 0 2.5-.098 6.2 1.074.5.195 1.2.098 1.6-.293l2.1-2.051c.2-.195.6-.195.7 0l8.7 8.497c.2.195.3.488 0 .683zm-19.3-4.297c-7.9 0-14.2 6.251-14.2 13.868 0 .391.3.782.8.782s.8-.293.8-.782c0-6.836 5.7-12.5 12.8-12.5.4 0 .8-.293.8-.782 0-.488-.6-.586-1-.586zm27.7-8.789h-4.5v-4.298c0-.488-.3-.781-.7-.781s-.8.293-.8.781v4.395h-4.5c-.4-.097-.7.293-.7.684s.3.781.8.781h4.5v4.395c0 .391.3.781.8.781s.8-.293.8-.781v-4.395h4.5c.3 0 .6-.39.6-.781s-.3-.781-.8-.781zM264.267 132.821c0-19.012-13.6-34.117-32-37.763v-5.209c0-4.427-3.467-7.813-8-7.813-4.534 0-8 3.386-8 7.813v5.209c-18.4 3.646-32 19.012-32 37.763 0 25.002-9.067 32.554-13.867 37.763-1.6 1.562-2.133 3.385-2.133 5.208 0 3.907 3.2 7.813 8 7.813h96c4.8 0 8-3.906 8-7.813 0-1.823-.534-3.646-2.134-5.208-4.8-5.209-13.866-12.761-13.866-37.763zm8 46.878h-96c-2.4 0-4-2.084-4-3.907s1.066-2.604 2.133-3.646c5.333-5.469 14.133-14.323 14.133-39.325 0-15.887 9.867-30.21 32-34.638V89.85c0-2.083 1.867-3.906 4-3.906 2.134 0 3.734 1.823 3.734 3.906v8.334c22.133 4.428 32 19.012 32 34.638 0 25.002 8.8 33.856 14.133 39.325 1.067 1.042 2.133 1.823 2.133 3.646-.266 1.823-1.866 3.907-4.266 3.907zm-33.867 9.636c-1.067 0-2.133.781-2.133 2.083 0 6.511-5.334 11.72-12 11.72-6.667 0-12-5.209-12-11.72 0-1.041-.8-2.083-2.134-2.083-1.333 0-2.133.781-2.133 2.083 0 8.595 7.2 15.626 16 15.626s16-7.031 16-15.626c.267-1.041-.533-2.083-1.6-2.083zm-66.133-62.504c0-1.042-.8-2.084-2.134-2.084h-24c-1.066 0-2.133.782-2.133 2.084s.8 2.083 2.133 2.083h24c1.334 0 2.134-.781 2.134-2.083zm130.133-1.823h-24c-1.067 0-2.133.781-2.133 2.083 0 1.303.8 2.084 2.133 2.084h24c1.067 0 2.133-.781 2.133-2.084 0-1.302-1.066-2.083-2.133-2.083zm-129.067-21.616c.267.26.534.26.8.26.8 0 1.334-.521 1.867-1.041.533-1.042 0-2.084-.8-2.605l-20-9.896c-1.067-.521-2.133 0-2.667.781-.533 1.042 0 2.084.8 2.604zm100.8 0c.267 0 .534 0 .8-.261l20-9.896c1.067-.52 1.334-1.563.8-2.604-.533-1.042-1.6-1.302-2.666-.782l-20 9.897c-1.067.521-1.334 1.562-.8 2.604.533.781 1.333 1.042 1.866 1.042zM370.5 52.933a.798.798 0 0 0-1.1 0l-10.1 9.864c-.1.098-.2.293-.2.488 0 .196.1.39.2.489.3.292.8.292 1.1 0l8.8-8.595v20.216c0 .391.3.782.8.782s.8-.293.8-.782V55.277l8.7 8.496c.3.293.8.293 1.1 0s.3-.78 0-1.074zm19.9 5.86c.4-.977.6-2.051.6-3.126 0-4.883-4-8.79-9-8.79-1.8 0-3.6.587-5 1.466-2.6-4.395-7.4-7.325-13-7.325-8.3 0-15 6.543-15 14.65v.78c-5.2 1.759-9 6.74-9 12.404 0 7.325 6 13.184 13.5 13.184H388c6.6 0 12-5.273 12-11.72 0-5.664-4.1-10.351-9.6-11.523zM388 80.57h-34.5c-6.6 0-12-5.273-12-11.72 0-4.98 3.2-9.375 8-11.035l1-.39V56.35v-.683c0-7.228 6.1-13.185 13.5-13.185 4.8 0 9.3 2.54 11.7 6.641l.8 1.367 1.3-.879c1.2-.78 2.7-1.27 4.2-1.27 4.1 0 7.5 3.321 7.5 7.326 0 .878-.2 1.757-.5 2.636l-.6 1.66 1.7.391c4.9.977 8.4 5.176 8.4 10.06 0 5.566-4.7 10.156-10.5 10.156zM370.5 238.492a.798.798 0 0 0-1.1 0l-10.1 9.864c-.1.097-.2.293-.2.488s.1.391.2.488c.3.293.8.293 1.1 0l8.8-8.594v20.216c0 .391.3.781.8.781s.8-.293.8-.781v-20.118l8.7 8.496c.3.293.8.293 1.1 0s.3-.781 0-1.074zm19.9 5.86c.4-.977.6-2.051.6-3.126 0-4.883-4-8.789-9-8.789-1.8 0-3.6.586-5 1.465-2.6-4.395-7.4-7.325-13-7.325-8.3 0-15 6.543-15 14.649v.782c-5.2 1.758-9 6.738-9 12.403 0 7.324 6 13.184 13.5 13.184H388c6.6 0 12-5.274 12-11.719 0-5.665-4.1-10.353-9.6-11.524zM388 266.13h-34.5c-6.6 0-12-5.274-12-11.719 0-4.981 3.2-9.376 8-11.036l1-.391v-1.074-.684c0-7.227 6.1-13.184 13.5-13.184 4.8 0 9.3 2.539 11.7 6.641l.8 1.367 1.3-.879c1.2-.781 2.7-1.269 4.2-1.269 4.1 0 7.5 3.32 7.5 7.324 0 .879-.2 1.758-.5 2.637l-.6 1.66 1.7.391c4.9.977 8.4 5.176 8.4 10.059 0 5.567-4.7 10.157-10.5 10.157zM78.5 200.403a.798.798 0 0 0-1.1 0l-10.1 9.864c-.1.098-.2.293-.2.489 0 .195.1.39.2.488.3.293.8.293 1.1 0l8.8-8.594v20.216c0 .39.3.781.8.781s.8-.293.8-.781v-20.119l8.7 8.497c.3.293.8.293 1.1 0s.3-.781 0-1.074zm19.9 5.86c.4-.976.6-2.051.6-3.125 0-4.883-4-8.79-9-8.79-1.8 0-3.6.586-5 1.465-2.6-4.395-7.4-7.324-13-7.324-8.3 0-15 6.543-15 14.649v.781c-5.2 1.758-9 6.739-9 12.403 0 7.325 6 13.185 13.5 13.185H96c6.6 0 12-5.274 12-11.72 0-5.664-4.1-10.352-9.6-11.524zM96 228.042H61.5c-6.6 0-12-5.274-12-11.72 0-4.98 3.2-9.375 8-11.035l1-.391v-1.074-.684c0-7.227 6.1-13.185 13.5-13.185 4.8 0 9.3 2.54 11.7 6.642l.8 1.367 1.3-.879c1.2-.781 2.7-1.27 4.2-1.27 4.1 0 7.5 3.321 7.5 7.325 0 .879-.2 1.758-.5 2.637l-.6 1.66 1.7.391c4.9.976 8.4 5.176 8.4 10.059 0 5.567-4.7 10.157-10.5 10.157zM78.5 11.915a.798.798 0 0 0-1.1 0l-10.1 9.864c-.1.097-.2.293-.2.488s.1.39.2.488c.3.293.8.293 1.1 0l8.8-8.594v20.216c0 .39.3.781.8.781s.8-.293.8-.78v-20.12l8.7 8.497c.3.293.8.293 1.1 0s.3-.781 0-1.074zm19.9 5.86c.4-.977.6-2.051.6-3.126 0-4.883-4-8.79-9-8.79-1.8 0-3.6.587-5 1.466C82.4 2.93 77.6 0 72 0c-8.3 0-15 6.543-15 14.65v.78c-5.2 1.759-9 6.74-9 12.404 0 7.324 6 13.184 13.5 13.184H96c6.6 0 12-5.274 12-11.72 0-5.664-4.1-10.351-9.6-11.523zM96 39.552H61.5c-6.6 0-12-5.273-12-11.72 0-4.98 3.2-9.375 8-11.035l1-.39v-1.075-.684c0-7.227 6.1-13.184 13.5-13.184 4.8 0 9.3 2.54 11.7 6.641l.8 1.367 1.3-.879c1.2-.781 2.7-1.27 4.2-1.27 4.1 0 7.5 3.321 7.5 7.325 0 .88-.2 1.758-.5 2.637l-.6 1.66 1.7.391c4.9.977 8.4 5.176 8.4 10.06 0 5.566-4.7 10.156-10.5 10.156z"/></g></svg>