<svg fill="none" height="373" width="491" xmlns="http://www.w3.org/2000/svg"><clipPath id="a"><path d="M0 0h491v373H0z"/></clipPath><g clip-path="url(#a)"><path d="M322.474 281.755c0 12.844 10.406 23.25 23.25 23.25 12.843 0 23.25-10.406 23.25-23.25s-10.407-23.25-23.25-23.25c-12.844 0-23.25 10.406-23.25 23.25zm27.375 10.875c0 .562-.469 1.125-1.125 1.125h-6c-.563 0-1.125-.563-1.125-1.125v-10.875h-6.563c-1.031 0-1.5-1.219-.844-1.969l10.782-10.687c.468-.469 1.125-.469 1.593 0l10.782 10.687c.656.75.187 1.969-.844 1.969h-6.656zM246.462 281.755c0 12.844 10.406 23.25 23.25 23.25s23.25-10.406 23.25-23.25-10.406-23.25-23.25-23.25-23.25 10.406-23.25 23.25zm27.375 10.875c0 .562-.469 1.125-1.125 1.125h-6c-.563 0-1.125-.563-1.125-1.125v-10.875h-6.563c-1.031 0-1.5-1.219-.843-1.969l10.781-10.687c.469-.469 1.125-.469 1.594 0l10.781 10.687c.656.75.187 1.969-.844 1.969h-6.656z" fill="#63e6be"/><path d="M287.457 225.387c0 12.843 10.406 23.25 23.25 23.25s23.25-10.407 23.25-23.25c0-12.844-10.406-23.25-23.25-23.25s-23.25 10.406-23.25 23.25zm27.375 10.875c0 .562-.469 1.125-1.125 1.125h-6c-.562 0-1.125-.563-1.125-1.125v-10.875h-6.562c-1.032 0-1.5-1.219-.844-1.969l10.781-10.688c.469-.468 1.125-.468 1.594 0l10.781 10.688c.656.75.188 1.969-.844 1.969h-6.656zM287.75 335c0 12.844 10.406 23.25 23.25 23.25s23.25-10.406 23.25-23.25-10.406-23.25-23.25-23.25-23.25 10.406-23.25 23.25zm27.375 10.875c0 .562-.469 1.125-1.125 1.125h-6c-.562 0-1.125-.563-1.125-1.125V335h-6.562c-1.032 0-1.5-1.219-.844-1.969l10.781-10.687c.469-.469 1.125-.469 1.594 0l10.781 10.687c.656.75.188 1.969-.844 1.969h-6.656z" fill="#0ca678"/><path d="M205.467 225.387c0 12.843 10.406 23.25 23.25 23.25s23.25-10.407 23.25-23.25c0-12.844-10.406-23.25-23.25-23.25s-23.25 10.406-23.25 23.25zm27.375 10.875c0 .562-.469 1.125-1.125 1.125h-6c-.563 0-1.125-.563-1.125-1.125v-10.875h-6.563c-1.031 0-1.5-1.219-.843-1.969l10.781-10.688c.469-.468 1.125-.468 1.594 0l10.781 10.688c.656.75.187 1.969-.844 1.969h-6.656zM205.467 335c0 12.844 10.406 23.25 23.25 23.25s23.25-10.406 23.25-23.25-10.406-23.25-23.25-23.25-23.25 10.406-23.25 23.25zm27.375 10.875c0 .562-.469 1.125-1.125 1.125h-6c-.563 0-1.125-.563-1.125-1.125V335h-6.563c-1.031 0-1.5-1.219-.843-1.969l10.781-10.687c.469-.469 1.125-.469 1.594 0l10.781 10.687c.656.75.187 1.969-.844 1.969h-6.656z" fill="#63e6be"/><path d="M170.45 280.047c0 12.844 10.406 23.25 23.25 23.25s23.25-10.406 23.25-23.25-10.406-23.25-23.25-23.25-23.25 10.406-23.25 23.25zm27.375 10.875c0 .562-.469 1.125-1.125 1.125h-6c-.562 0-1.125-.563-1.125-1.125v-10.875h-6.562c-1.032 0-1.5-1.219-.844-1.969l10.781-10.687c.469-.469 1.125-.469 1.594 0l10.781 10.687c.656.75.188 1.969-.844 1.969h-6.656z" fill="#0ca678"/><g clip-rule="evenodd" fill-rule="evenodd"><path d="M131.384 311.583c7.164 1.465 13.106 5.043 17.827 10.737 4.722 5.694 7.082 12.282 7.082 19.766 0 5.693-1.383 10.94-4.151 15.739s-6.553 8.581-11.356 11.347c-4.803 2.765-10.053 4.148-15.751 4.148H35.166c-6.35 0-12.21-1.586-17.583-4.758-5.373-3.173-9.646-7.443-12.82-12.811C1.586 350.382 0 344.526 0 338.181c0-7.645 2.198-14.478 6.594-20.497 4.395-6.019 10.012-10.249 16.85-12.689v-1.952c0-6.995 1.75-13.502 5.25-19.522 3.5-6.019 8.263-10.777 14.287-14.275C49.004 265.749 55.557 264 62.639 264c7.082 0 13.635 1.789 19.66 5.368 6.023 3.579 10.744 8.297 14.163 14.153 3.908-2.602 8.222-3.904 12.943-3.904 6.513 0 12.048 2.278 16.607 6.833 4.558 4.555 6.837 10.086 6.837 16.593 0 2.928-.488 5.775-1.465 8.54zM466.091 96.265c7.164 1.464 13.106 5.043 17.827 10.737 4.722 5.694 7.082 12.282 7.082 19.765 0 5.694-1.383 10.94-4.151 15.74-2.768 4.799-6.553 8.581-11.356 11.346-4.803 2.766-10.053 4.149-15.751 4.149h-89.869c-6.349 0-12.21-1.586-17.583-4.759-5.373-3.172-9.646-7.442-12.821-12.811-3.175-5.368-4.762-11.224-4.762-17.569 0-7.646 2.198-14.478 6.594-20.497 4.395-6.02 10.012-10.25 16.85-12.69v-1.952c0-6.995 1.75-13.502 5.251-19.52 3.5-6.02 8.262-10.778 14.286-14.276s12.576-5.246 19.658-5.246c7.083 0 13.635 1.79 19.659 5.368 6.024 3.579 10.745 8.297 14.164 14.153 3.908-2.603 8.222-3.904 12.943-3.904 6.513 0 12.048 2.277 16.607 6.832 4.558 4.555 6.837 10.086 6.837 16.593 0 2.929-.488 5.776-1.465 8.541zM201.384 47.584c7.164 1.464 13.106 5.042 17.827 10.736 4.722 5.694 7.082 12.283 7.082 19.766 0 5.694-1.383 10.94-4.151 15.739-2.768 4.799-6.553 8.581-11.356 11.347-4.803 2.765-10.053 4.148-15.751 4.148h-89.869c-6.35 0-12.21-1.586-17.583-4.758-5.373-3.173-9.646-7.443-12.82-12.811C71.586 86.382 70 80.526 70 74.18c0-7.646 2.198-14.478 6.594-20.497 4.395-6.02 10.012-10.249 16.85-12.689v-1.952c0-6.995 1.75-13.503 5.25-19.522 3.501-6.019 8.263-10.777 14.287-14.275C119.005 1.75 125.557 0 132.639 0c7.083 0 13.635 1.79 19.659 5.368s10.745 8.297 14.164 14.153c3.908-2.602 8.222-3.904 12.943-3.904 6.513 0 12.048 2.278 16.607 6.833 4.558 4.555 6.837 10.086 6.837 16.593 0 2.928-.488 5.775-1.465 8.54z" fill="#c2c7d1"/><path d="M366.36 110.601c12.527 2.563 22.918 8.826 31.174 18.79s12.384 21.494 12.384 34.589c0 9.964-2.42 19.146-7.26 27.544s-11.459 15.017-19.857 19.857-17.579 7.259-27.543 7.259H198.11c-11.103 0-21.352-2.775-30.747-8.327-9.394-5.551-16.867-13.024-22.419-22.419-5.551-9.395-8.327-19.643-8.327-30.746 0-13.381 3.843-25.337 11.53-35.871 7.687-10.533 17.508-17.935 29.465-22.206v-3.416c0-12.241 3.061-23.629 9.181-34.162 6.121-10.534 14.448-18.86 24.982-24.982 10.533-6.12 21.992-9.18 34.376-9.18s23.843 3.13 34.376 9.394c10.533 6.263 18.789 14.519 24.768 24.768 6.832-4.555 14.377-6.833 22.633-6.833 11.387 0 21.066 3.986 29.038 11.957 7.971 7.971 11.957 17.65 11.957 29.038 0 5.125-.854 10.107-2.563 14.946z" fill="#fff"/></g></g></svg>